<svg width="146" height="36" viewBox="0 0 146 36" fill="none" xmlns="http://www.w3.org/2000/svg">
<path d="M2.9377 0H32.9175C34.5458 0 35.8552 1.32614 35.8552 2.94951V33.0505C35.8552 34.6853 34.5344 36 32.9175 36H2.9377C1.30947 36 6.10352e-05 34.6739 6.10352e-05 33.0505V2.94951C6.10352e-05 1.32614 1.30947 0 2.9377 0Z" fill="#184070"/>
<path d="M20.3813 9.16863C20.313 9.00858 20.313 8.82566 20.3813 8.66561L20.7001 7.96825C20.7798 7.78533 20.9506 7.67101 21.1442 7.67101H21.4061C21.5996 7.65958 21.7818 7.78533 21.8615 7.96825L30.6972 27.6545C30.8225 27.8831 30.7314 28.1689 30.5036 28.2833C30.4239 28.329 30.3442 28.3404 30.2531 28.3404H29.1942C29.0007 28.3404 28.8185 28.2261 28.7502 28.0432L20.3813 9.16863Z" fill="#F8DE8A"/>
<path d="M18.9807 16.3938L17.9446 18.7374L22.0778 28.0546C22.1575 28.2376 22.3283 28.3519 22.5218 28.3519H23.5807C23.8426 28.3747 24.059 28.1804 24.0817 27.9175C24.0931 27.826 24.0704 27.746 24.0248 27.666L18.9807 16.3938Z" fill="#F8DE8A"/>
<path d="M15.4626 8.66562L15.1438 7.96826C15.0641 7.78534 14.8819 7.67102 14.6883 7.67102H14.4264C14.2329 7.67102 14.0507 7.78534 13.9824 7.96826L5.15805 27.6431C5.03281 27.8717 5.12389 28.1575 5.35162 28.2719C5.43132 28.3176 5.52241 28.329 5.6135 28.329H6.67242C6.86598 28.329 7.03678 28.2147 7.11648 28.0432L15.474 9.16864C15.5537 9.00859 15.5537 8.82567 15.4626 8.66562Z" fill="#FEF9CE"/>
<path d="M22.1803 8.66562L21.8615 7.96826C21.7818 7.78534 21.611 7.67102 21.4175 7.67102H21.1556C20.962 7.67102 20.7798 7.78534 20.7115 7.96826L11.8758 27.6545C11.7506 27.8832 11.8417 28.169 12.0694 28.2833C12.1491 28.329 12.2402 28.3404 12.3313 28.3404H13.3788C13.5724 28.3404 13.7545 28.2261 13.8343 28.0432L22.1803 9.16864C22.26 9.00859 22.26 8.82567 22.1803 8.66562Z" fill="#FEF9CE"/>
<path d="M131.761 7.44235C131.727 7.09939 132.012 6.79072 132.353 6.79072C132.387 6.79072 132.41 6.79072 132.444 6.79072H135.473C135.815 6.75642 136.088 6.97363 136.122 7.3166C136.122 7.3509 136.122 7.40806 136.122 7.44235V24.9565H144.844C145.026 24.9565 145.185 25.0136 145.311 25.1394C145.436 25.2651 145.527 25.4481 145.493 25.631V28.3633C145.527 28.7062 145.311 28.9806 144.969 29.0149C144.935 29.0149 144.878 29.0149 144.844 29.0149H132.41C132.103 29.0492 131.795 28.832 131.761 28.5233C131.761 28.4662 131.761 28.3976 131.761 28.3633V7.44235Z" fill="#184070"/>
<path d="M119.475 28.4433V7.44231C119.475 7.00789 119.657 6.82498 120.067 6.82498H123.29C123.665 6.82498 123.848 7.04218 123.848 7.44231V28.4433C123.848 28.8434 123.665 29.0378 123.29 29.0378H120.067C119.794 29.072 119.509 28.8777 119.475 28.6033C119.475 28.5347 119.475 28.5004 119.475 28.4433Z" fill="#184070"/>
<path d="M111.528 7.29372C111.277 7.11081 111.004 7.00792 110.697 7.00792H109.399C109.091 6.97362 108.807 7.06508 108.59 7.29372C108.408 7.54523 108.306 7.8196 108.306 8.12827L108.123 10.369C107.816 9.8774 107.44 9.40868 107.042 8.97426C106.609 8.53983 106.142 8.1397 105.618 7.79674C105.06 7.41948 104.446 7.1451 103.797 6.96219C103.022 6.74498 102.191 6.61922 101.383 6.65352C98.4792 6.61922 95.6555 7.83103 93.6856 10.0032C92.7292 11.0549 91.9777 12.301 91.4881 13.6386C90.4406 16.5309 90.4406 19.6977 91.4881 22.5786C91.9777 23.9161 92.752 25.1623 93.7198 26.214C94.6762 27.2429 95.8262 28.0775 97.1243 28.6376C98.4906 29.2321 99.9367 29.5065 101.428 29.5065C103.227 29.5065 104.639 29.1292 105.664 28.4204C106.655 27.7116 107.52 26.8428 108.169 25.8139V27.9288C108.169 28.6719 108.545 29.0492 109.285 29.0835H110.708C111.015 29.0835 111.3 28.992 111.539 28.7977C111.756 28.6376 111.881 28.3633 111.881 28.0889V8.12827C111.869 7.8196 111.744 7.51093 111.528 7.29372ZM107.748 21.2067C107.474 22.0756 107.007 22.8872 106.415 23.596C105.823 24.2477 105.083 24.8079 104.275 25.1851C103.341 25.5852 102.385 25.8025 101.394 25.7796C100.438 25.7796 99.4471 25.5624 98.5475 25.1623C97.6822 24.7621 96.9421 24.202 96.3159 23.4817C95.6896 22.7615 95.2 21.9269 94.8926 21.0238C94.551 20.0864 94.403 19.0689 94.403 18.0743C94.403 17.0797 94.5624 16.0851 94.9267 15.1819C95.2342 14.2788 95.701 13.4442 96.3159 12.724C96.9307 12.0038 97.6822 11.4207 98.5134 11.0435C99.4471 10.6091 100.426 10.4261 101.417 10.4261C102.407 10.3918 103.432 10.6091 104.32 11.0435C105.129 11.4436 105.869 12.0038 106.427 12.724C107.019 13.4671 107.452 14.3131 107.725 15.2048C108.34 17.1597 108.34 19.2404 107.748 21.2067Z" fill="#184070"/>
<path d="M72.5757 7.7853L78.7015 23.6303L84.8273 7.76244C85.0436 7.27085 85.5104 6.95075 86.0342 6.98505H87.9243C88.5392 6.98505 88.858 7.23656 88.858 7.69385C88.858 7.8196 88.8238 7.94535 88.801 8.07111C88.7669 8.16256 88.7441 8.28832 88.6758 8.34548L80.5347 28.1575C80.4436 28.4319 80.2614 28.6834 80.0109 28.8434C79.7946 28.9692 79.5441 29.0035 79.3277 29.0035H78.0297C77.7564 29.0378 77.4718 28.9692 77.2213 28.8206C77.0619 28.6376 76.948 28.3861 76.8455 28.1346L68.7727 8.59699C68.7386 8.53983 68.7158 8.43694 68.6475 8.25402C68.5906 8.07111 68.5564 7.8539 68.5564 7.63668C68.5564 7.16796 68.8638 6.92789 69.4901 6.92789H71.4029C71.9267 6.97362 72.3935 7.31658 72.5757 7.7853Z" fill="#184070"/>
<path d="M63.6033 7.29372C63.3528 7.11081 63.0795 7.00792 62.7721 7.00792H61.4741C61.1667 6.97362 60.882 7.06508 60.6657 7.29372C60.4835 7.54523 60.3924 7.8196 60.3924 8.12827L60.2102 10.369C59.9028 9.8774 59.5271 9.40868 59.1285 8.97426C58.6959 8.53983 58.229 8.1397 57.7053 7.79674C57.1473 7.41948 56.5325 7.1451 55.8835 6.96219C55.1092 6.74498 54.278 6.61922 53.4696 6.65352C50.532 6.61922 47.7196 7.83103 45.7384 10.0032C44.7819 11.0549 44.0418 12.301 43.5408 13.6386C42.4933 16.5309 42.4933 19.6977 43.5408 22.5786C44.0304 23.9161 44.8047 25.1623 45.7725 26.214C46.729 27.2429 47.879 28.0775 49.177 28.6376C50.5433 29.2321 51.9894 29.5065 53.481 29.5065C55.3028 29.5065 56.6919 29.1292 57.7166 28.4204C58.7072 27.7116 59.5726 26.8428 60.2216 25.8139V27.9288C60.2216 28.6719 60.5974 29.0492 61.3375 29.0835H62.7949C63.1023 29.0835 63.387 28.992 63.6261 28.7977C63.8424 28.6376 63.9677 28.3633 63.9677 28.0889V8.12827C63.9791 7.8196 63.8538 7.51093 63.6033 7.29372ZM59.8003 21.1724C59.5271 22.0756 59.0602 22.8758 58.4681 23.596C57.876 24.282 57.136 24.8079 56.3275 25.1851C55.428 25.5852 54.4716 25.8025 53.481 25.7796C52.4904 25.7796 51.4998 25.5624 50.6003 25.1623C49.7349 24.785 48.9948 24.2248 48.3686 23.516C47.7537 22.8072 47.2527 21.9612 46.9453 21.0581C46.6037 20.1321 46.4557 19.1032 46.4557 18.1086C46.4557 17.0797 46.6151 16.0851 46.9795 15.1591C47.2869 14.2559 47.7537 13.4214 48.3686 12.7012C48.9834 11.9924 49.7349 11.3979 50.5661 11.0206C51.4656 10.5862 52.479 10.4033 53.4696 10.4033C54.4602 10.369 55.485 10.5862 56.3731 11.0206C57.1815 11.4207 57.8874 11.9809 58.4795 12.7012C59.0716 13.4442 59.5043 14.2902 59.7775 15.1819C60.3924 17.1368 60.3924 19.2175 59.8003 21.1724Z" fill="#184070"/>
</svg>
